<svg width="180" height="48" viewBox="0 0 180 48" fill="none" xmlns="http://www.w3.org/2000/svg">
<path d="M54.0232 36.2228V32.1417C57.1418 33.162 60.3329 33.6721 63.5241 33.6721C67.8031 33.6721 69.9064 32.3603 69.9064 29.8096C69.9064 27.4046 68.4558 26.2385 65.4823 26.2385H61.6384C55.9089 26.2385 53.0078 23.6149 53.0078 18.2948C53.0078 13.1933 56.7066 10.6426 64.1043 10.6426C67.2954 10.6426 70.414 11.0798 73.6052 11.9544V16.0356C70.4866 15.0153 67.2954 14.5051 64.1043 14.5051C59.6802 14.5051 57.4319 15.8169 57.4319 18.3677C57.4319 20.7727 58.8099 21.9387 61.6384 21.9387H65.4823C71.5745 21.9387 74.6205 24.5623 74.6205 29.8824C74.6205 34.9839 70.9217 37.5347 63.5241 37.5347C60.3329 37.4618 57.1418 37.0245 54.0232 36.2228Z" fill="#181818"/>
<path d="M75.7051 37.4606V1.02148H80.4193V13.6294C82.6676 11.6617 85.4236 10.7143 88.6872 10.7143C95.3596 10.7143 98.6958 14.0667 98.6958 20.6986V37.5335H93.9816V20.5529C93.9816 16.5446 92.0234 14.5768 88.0345 14.5768C85.351 14.5768 82.8126 15.7429 80.3467 18.0021V37.4606H75.7051Z" fill="#181818"/>
<path d="M105.296 1.02148V5.46706H100.582V1.02148H105.296ZM105.296 10.7143V37.5335H100.582V10.7143H105.296Z" fill="#181818"/>
<path d="M108.195 11.8119C111.749 11.0831 115.375 10.7188 119.147 10.7188C127.705 10.7188 131.984 14.9457 131.984 23.4724C131.984 32.8737 127.705 37.5379 119.074 37.5379C116.971 37.5379 114.868 37.1007 112.909 36.2261V47.2307H108.195V11.8119ZM112.909 31.9992C114.723 32.9466 116.826 33.3839 119.074 33.3839C124.586 33.3839 127.342 30.0315 127.342 23.3267C127.342 17.4964 124.586 14.5813 119.074 14.5813C116.681 14.5813 114.65 14.7999 112.837 15.1643V31.9992H112.909Z" fill="#181818"/>
<path d="M132.934 29.3723C132.934 23.9064 136.56 21.137 143.74 21.137C146.061 21.137 148.382 21.2828 150.702 21.6472V19.0965C150.702 16.0356 148.309 14.5051 143.522 14.5051C140.766 14.5051 137.938 14.9424 135.109 15.8169V11.9544C138.01 11.0798 140.766 10.6426 143.522 10.6426C151.428 10.6426 155.417 13.412 155.417 18.9507V37.3889H152.806L151.21 34.7653C148.527 36.5144 145.626 37.3889 142.507 37.3889C136.125 37.4618 132.934 34.7653 132.934 29.3723ZM143.74 24.9996C139.679 24.9996 137.648 26.4572 137.648 29.3723C137.648 32.2874 139.243 33.745 142.507 33.745C145.771 33.745 148.527 32.8704 150.775 31.1214V25.5097C148.382 25.1453 146.061 24.9996 143.74 24.9996Z" fill="#181818"/>
<path d="M154.617 10.7188H159.694L167.237 31.6348L174.997 10.7188H180.001L168.977 38.2667C167.019 43.1496 164.046 46.1376 160.129 47.3765L158.316 44.0241C161.29 42.7123 163.465 40.5988 164.843 37.6108L154.617 10.7188Z" fill="#181818"/>
<path d="M0 40.9576C0 42.6338 1.37799 44.0913 3.11862 44.0913H42.5727C44.2408 44.0913 45.6913 42.7067 45.6913 40.9576V3.06089C45.6188 1.38469 44.2408 0 42.5002 0H3.11862C1.37799 0 0 1.38469 0 3.13376V40.9576Z" fill="#027AD3"/>
<path d="M38.6726 8.9643C38.6726 7.72537 37.6572 6.70508 36.4243 6.70508H11.4029H9.15455C7.12383 6.70508 6.90625 7.72537 6.90625 8.9643V15.2318C6.90625 16.4708 7.92161 17.4911 9.15455 17.4911C10.3875 17.4911 11.4029 16.4708 11.4029 15.2318V13.4099C11.4029 12.1709 11.4029 11.1507 13.6512 11.1507H36.4968C37.7298 11.1507 38.6726 10.1304 38.6726 8.9643Z" fill="white"/>
<path d="M36.48 19.3105H15.4475C14.2146 19.3105 13.1992 20.3308 13.1992 21.5698C13.1992 22.8087 14.2146 23.829 15.4475 23.829H32.056C34.3043 23.829 34.3043 24.8493 34.3043 26.0882V30.8982C34.3043 32.1371 34.5944 33.1574 32.056 33.1574H15.4475C14.2146 33.1574 13.1992 34.1777 13.1992 35.4166C13.1992 36.6556 14.2146 37.6759 15.4475 37.6759H36.48C38.6558 37.6759 38.7283 36.6556 38.7283 35.4166V21.7155C38.6558 20.3308 38.8734 19.3105 36.48 19.3105Z" fill="white"/>
<path d="M6.97852 21.5034C6.97852 22.7423 7.99388 23.7626 9.22682 23.7626C10.4598 23.7626 11.4751 22.7423 11.4751 21.5034C11.4751 20.2644 10.4598 19.2441 9.22682 19.2441C7.92135 19.317 6.97852 20.3373 6.97852 21.5034Z" fill="#FBCE33"/>
<path d="M6.97852 35.2768C6.97852 36.5157 7.99388 37.536 9.22682 37.536C10.4598 37.536 11.4751 36.5157 11.4751 35.2768C11.4751 34.0379 10.4598 33.0176 9.22682 33.0176C7.92135 33.0176 6.97852 34.0379 6.97852 35.2768Z" fill="#FBCE33"/>
<path d="M34.2246 15.2241C34.2246 16.463 35.24 17.4833 36.4729 17.4833C37.7059 17.4833 38.7212 16.463 38.7212 15.2241C38.7212 13.9851 37.7059 12.9648 36.4729 12.9648C35.24 12.9648 34.2246 13.9851 34.2246 15.2241Z" fill="#FBCE33"/>
</svg>
